<mxfile host="app.diagrams.net" modified="2023-04-26T08:21:11.512Z" agent="Mozilla/5.0 (Windows NT 10.0; Win64; x64) AppleWebKit/537.36 (KHTML, like Gecko) Chrome/112.0.0.0 Safari/537.36" etag="DpwHYtcxM4BphX1sNVzf" version="21.1.8" type="device">
  <diagram id="SI3Oj2vh3ITaJ51HTvTG" name="Page-1">
    <mxGraphModel dx="2284" dy="749" grid="1" gridSize="10" guides="1" tooltips="1" connect="1" arrows="1" fold="1" page="1" pageScale="1" pageWidth="850" pageHeight="1100" math="0" shadow="0">
      <root>
        <mxCell id="0" />
        <mxCell id="1" parent="0" />
        <mxCell id="WZFzB4fQnE0JYax8pOxZ-61" value="" style="rounded=1;whiteSpace=wrap;html=1;shadow=0;sketch=0;strokeColor=none;strokeWidth=4;fillColor=#E3E6B8;gradientColor=none;" parent="1" vertex="1">
          <mxGeometry x="-140" y="40" width="590" height="560" as="geometry" />
        </mxCell>
        <mxCell id="WZFzB4fQnE0JYax8pOxZ-41" style="edgeStyle=orthogonalEdgeStyle;rounded=0;orthogonalLoop=1;jettySize=auto;html=1;exitX=0.5;exitY=1;exitDx=0;exitDy=0;entryX=0.5;entryY=0;entryDx=0;entryDy=0;" parent="1" target="WZFzB4fQnE0JYax8pOxZ-11" edge="1">
          <mxGeometry relative="1" as="geometry">
            <mxPoint x="515" y="690" as="sourcePoint" />
          </mxGeometry>
        </mxCell>
        <mxCell id="WZFzB4fQnE0JYax8pOxZ-65" value="&lt;b&gt;&lt;font style=&quot;font-size: 30px;&quot;&gt;Constraint lifecycle (Simplified)&lt;/font&gt;&lt;/b&gt;" style="text;html=1;strokeColor=none;fillColor=none;align=center;verticalAlign=middle;whiteSpace=wrap;rounded=0;" parent="1" vertex="1">
          <mxGeometry x="-95" y="70" width="500" height="30" as="geometry" />
        </mxCell>
        <mxCell id="OOhMLLSUCmnOu_WB4NyE-35" style="edgeStyle=orthogonalEdgeStyle;rounded=0;orthogonalLoop=1;jettySize=auto;html=1;exitX=0.5;exitY=1;exitDx=0;exitDy=0;entryX=0.5;entryY=0;entryDx=0;entryDy=0;strokeWidth=2;" edge="1" parent="1" source="OOhMLLSUCmnOu_WB4NyE-3" target="OOhMLLSUCmnOu_WB4NyE-27">
          <mxGeometry relative="1" as="geometry" />
        </mxCell>
        <mxCell id="OOhMLLSUCmnOu_WB4NyE-3" value="&lt;font style=&quot;font-size: 18px;&quot;&gt;Update constraint&lt;/font&gt;" style="rounded=1;arcSize=10;whiteSpace=wrap;html=1;align=center;strokeColor=#000000;strokeWidth=3;fillColor=#FFD966;perimeterSpacing=0;shadow=1;" vertex="1" parent="1">
          <mxGeometry x="165" y="305" width="110" height="55" as="geometry" />
        </mxCell>
        <mxCell id="OOhMLLSUCmnOu_WB4NyE-31" style="edgeStyle=orthogonalEdgeStyle;rounded=0;orthogonalLoop=1;jettySize=auto;html=1;exitX=0.5;exitY=1;exitDx=0;exitDy=0;entryX=0.5;entryY=0;entryDx=0;entryDy=0;strokeWidth=2;" edge="1" parent="1" source="OOhMLLSUCmnOu_WB4NyE-7" target="OOhMLLSUCmnOu_WB4NyE-3">
          <mxGeometry relative="1" as="geometry" />
        </mxCell>
        <mxCell id="OOhMLLSUCmnOu_WB4NyE-32" style="edgeStyle=orthogonalEdgeStyle;rounded=0;orthogonalLoop=1;jettySize=auto;html=1;exitX=0.5;exitY=1;exitDx=0;exitDy=0;entryX=0.5;entryY=0;entryDx=0;entryDy=0;strokeWidth=2;" edge="1" parent="1" source="OOhMLLSUCmnOu_WB4NyE-7" target="OOhMLLSUCmnOu_WB4NyE-24">
          <mxGeometry relative="1" as="geometry">
            <Array as="points">
              <mxPoint x="220" y="270" />
              <mxPoint x="75" y="270" />
            </Array>
          </mxGeometry>
        </mxCell>
        <mxCell id="OOhMLLSUCmnOu_WB4NyE-33" style="edgeStyle=orthogonalEdgeStyle;rounded=0;orthogonalLoop=1;jettySize=auto;html=1;exitX=0.5;exitY=1;exitDx=0;exitDy=0;entryX=0.5;entryY=0;entryDx=0;entryDy=0;strokeWidth=2;" edge="1" parent="1" source="OOhMLLSUCmnOu_WB4NyE-7" target="OOhMLLSUCmnOu_WB4NyE-26">
          <mxGeometry relative="1" as="geometry">
            <Array as="points">
              <mxPoint x="220" y="270" />
              <mxPoint x="370" y="270" />
            </Array>
          </mxGeometry>
        </mxCell>
        <mxCell id="OOhMLLSUCmnOu_WB4NyE-34" style="edgeStyle=orthogonalEdgeStyle;rounded=0;orthogonalLoop=1;jettySize=auto;html=1;exitX=0.5;exitY=1;exitDx=0;exitDy=0;entryX=0.5;entryY=0;entryDx=0;entryDy=0;strokeWidth=2;" edge="1" parent="1" source="OOhMLLSUCmnOu_WB4NyE-7" target="OOhMLLSUCmnOu_WB4NyE-29">
          <mxGeometry relative="1" as="geometry">
            <Array as="points">
              <mxPoint x="220" y="270" />
              <mxPoint x="-65" y="270" />
            </Array>
          </mxGeometry>
        </mxCell>
        <mxCell id="OOhMLLSUCmnOu_WB4NyE-7" value="" style="rhombus;whiteSpace=wrap;html=1;fillColor=#FFD966;strokeColor=#000000;strokeWidth=3;shadow=1;" vertex="1" parent="1">
          <mxGeometry x="202.5" y="222.5" width="35" height="30" as="geometry" />
        </mxCell>
        <mxCell id="OOhMLLSUCmnOu_WB4NyE-30" style="edgeStyle=orthogonalEdgeStyle;rounded=0;orthogonalLoop=1;jettySize=auto;html=1;exitX=0.5;exitY=1;exitDx=0;exitDy=0;entryX=0.5;entryY=0;entryDx=0;entryDy=0;strokeWidth=2;" edge="1" parent="1" source="OOhMLLSUCmnOu_WB4NyE-8" target="OOhMLLSUCmnOu_WB4NyE-7">
          <mxGeometry relative="1" as="geometry" />
        </mxCell>
        <mxCell id="OOhMLLSUCmnOu_WB4NyE-8" value="&lt;font style=&quot;font-size: 20px;&quot;&gt;&lt;b&gt;...&lt;/b&gt;&lt;/font&gt;" style="rounded=1;arcSize=10;whiteSpace=wrap;html=1;align=center;strokeColor=#000000;strokeWidth=3;fillColor=#FFD966;perimeterSpacing=0;shadow=1;" vertex="1" parent="1">
          <mxGeometry x="170" y="150" width="100" height="40" as="geometry" />
        </mxCell>
        <mxCell id="OOhMLLSUCmnOu_WB4NyE-37" style="edgeStyle=orthogonalEdgeStyle;rounded=0;orthogonalLoop=1;jettySize=auto;html=1;exitX=0.5;exitY=1;exitDx=0;exitDy=0;entryX=0.5;entryY=0;entryDx=0;entryDy=0;strokeWidth=2;" edge="1" parent="1" source="OOhMLLSUCmnOu_WB4NyE-24" target="OOhMLLSUCmnOu_WB4NyE-27">
          <mxGeometry relative="1" as="geometry" />
        </mxCell>
        <mxCell id="OOhMLLSUCmnOu_WB4NyE-24" value="&lt;font style=&quot;font-size: 18px;&quot;&gt;Create constraint&lt;/font&gt;" style="rounded=1;arcSize=10;whiteSpace=wrap;html=1;align=center;strokeColor=#000000;strokeWidth=3;fillColor=#FFD966;perimeterSpacing=0;shadow=1;" vertex="1" parent="1">
          <mxGeometry x="20" y="305" width="110" height="55" as="geometry" />
        </mxCell>
        <mxCell id="OOhMLLSUCmnOu_WB4NyE-39" style="edgeStyle=orthogonalEdgeStyle;rounded=0;orthogonalLoop=1;jettySize=auto;html=1;exitX=0.5;exitY=1;exitDx=0;exitDy=0;entryX=1;entryY=0.5;entryDx=0;entryDy=0;strokeWidth=2;" edge="1" parent="1" source="OOhMLLSUCmnOu_WB4NyE-26" target="OOhMLLSUCmnOu_WB4NyE-28">
          <mxGeometry relative="1" as="geometry" />
        </mxCell>
        <mxCell id="OOhMLLSUCmnOu_WB4NyE-26" value="&lt;font style=&quot;font-size: 18px;&quot;&gt;Delete constraint&lt;/font&gt;" style="rounded=1;arcSize=10;whiteSpace=wrap;html=1;align=center;strokeColor=#000000;strokeWidth=3;fillColor=#FFD966;perimeterSpacing=0;shadow=1;" vertex="1" parent="1">
          <mxGeometry x="315" y="305" width="110" height="55" as="geometry" />
        </mxCell>
        <mxCell id="OOhMLLSUCmnOu_WB4NyE-36" style="edgeStyle=orthogonalEdgeStyle;rounded=0;orthogonalLoop=1;jettySize=auto;html=1;exitX=0.5;exitY=1;exitDx=0;exitDy=0;entryX=0.5;entryY=0;entryDx=0;entryDy=0;strokeWidth=2;" edge="1" parent="1" source="OOhMLLSUCmnOu_WB4NyE-27" target="OOhMLLSUCmnOu_WB4NyE-28">
          <mxGeometry relative="1" as="geometry" />
        </mxCell>
        <mxCell id="OOhMLLSUCmnOu_WB4NyE-27" value="&lt;font style=&quot;font-size: 18px;&quot;&gt;Validate syntax&lt;/font&gt;" style="rounded=1;arcSize=10;whiteSpace=wrap;html=1;align=center;strokeColor=#000000;strokeWidth=3;fillColor=#FFD966;perimeterSpacing=0;shadow=1;" vertex="1" parent="1">
          <mxGeometry x="165" y="410" width="110" height="55" as="geometry" />
        </mxCell>
        <mxCell id="OOhMLLSUCmnOu_WB4NyE-28" value="&lt;font style=&quot;font-size: 18px;&quot;&gt;Save&lt;/font&gt;" style="rounded=1;arcSize=10;whiteSpace=wrap;html=1;align=center;strokeColor=#000000;strokeWidth=3;fillColor=#FFD966;perimeterSpacing=0;shadow=1;" vertex="1" parent="1">
          <mxGeometry x="165" y="500" width="110" height="55" as="geometry" />
        </mxCell>
        <mxCell id="OOhMLLSUCmnOu_WB4NyE-29" value="&lt;font style=&quot;font-size: 18px;&quot;&gt;Read constraint&lt;/font&gt;" style="rounded=1;arcSize=10;whiteSpace=wrap;html=1;align=center;strokeColor=#000000;strokeWidth=3;fillColor=#FFD966;perimeterSpacing=0;shadow=1;" vertex="1" parent="1">
          <mxGeometry x="-120" y="305" width="110" height="55" as="geometry" />
        </mxCell>
      </root>
    </mxGraphModel>
  </diagram>
</mxfile>
